<svg xmlns="http://www.w3.org/2000/svg" viewBox="0 0 105 54" shape-rendering="crispEdges">
<rect width="105" height="54" fill="#343d58"/>
<path fill="#555e77" d="M0 31H0V31H1H1V31H2H2V30H3H3V31H4H4V31H5H5V30H6H6V31H7H7V32H8H8V32H9H9V33H10H10V34H11H11V33H12H12V34H13H13V35H14H14V35H15H15V34H16H16V35H17H17V34H18H18V34H19H19V34H20H20V34H21H21V33H22H22V34H23H23V34H24H24V33H25H25V34H26H26V34H27H27V34H28H28V33H29H29V34H30H30V34H31H31V34H32H32V35H33H33V34H34H34V35H35H35V34H36H36V35H37H37V35H38H38V35H39H39V35H40H40V34H41H41V35H42H42V34H43H43V35H44H44V34H45H45V35H46H46V35H47H47V34H48H48V34H49H49V33H50H50V33H51H51V32H52H52V33H53H53V32H54H54V31H55H55V32H56H56V31H57H57V31H58H58V30H59H59V31H60H60V32H61H61V31H62H62V31H63H63V30H64H64V31H65H65V29H66H66V30H67H67V30H68H68V29H69H69V29H70H70V28H71H71V29H72H72V29H73H73V29H74H74V28H75H75V29H76H76V29H77H77V29H78H78V29H79H79V29H80H80V29H81H81V28H82H82V29H83H83V28H84H84V28H85H85V29H86H86V29H87H87V29H88H88V29H89H89V30H90H90V30H91H91V30H92H92V29H93H93V30H94H94V30H95H95V29H96H96V30H97H97V31H98H98V32H99H99V31H100H100V32H101H101V32H102H102V31H103H103V32H104H104V31H105V54H0Z"/>
<path fill="#374d63" d="M0 39H0V39H1H1V39H2H2V39H3H3V39H4H4V39H5H5V39H6H6V39H7H7V39H8H8V39H9H9V39H10H10V39H11H11V39H12H12V39H13H13V39H14H14V39H15H15V39H16H16V39H17H17V39H18H18V39H19H19V39H20H20V39H21H21V39H22H22V39H23H23V39H24H24V39H25H25V39H26H26V39H27H27V39H28H28V39H29H29V39H30H30V39H31H31V39H32H32V39H33H33V39H34H34V39H35H35V39H36H36V39H37H37V39H38H38V39H39H39V39H40H40V39H41H41V39H42H42V39H43H43V39H44H44V39H45H45V38H46H46V38H47H47V37H48H48V37H49H49V37H50H50V36H51H51V36H52H52V35H53H53V35H54H54V35H55H55V34H56H56V34H57H57V34H58H58V34H59H59V35H60H60V35H61H61V35H62H62V35H63H63V35H64H64V34H65H65V34H66H66V34H67H67V33H68H68V33H69H69V33H70H70V32H71H71V32H72H72V32H73H73V32H74H74V33H75H75V33H76H76V33H77H77V32H78H78V32H79H79V31H80H80V31H81H81V31H82H82V31H83H83V31H84H84V31H85H85V31H86H86V32H87H87V32H88H88V32H89H89V32H90H90V32H91H91V32H92H92V32H93H93V32H94H94V32H95H95V32H96H96V32H97H97V32H98H98V32H99H99V32H100H100V32H101H101V32H102H102V32H103H103V32H104H104V32H105V54H0Z"/>
<path fill="#233a4b" d="M0 37H0V37H1H1V37H2H2V37H3H3V37H4H4V37H5H5V36H6H6V36H7H7V36H8H8V36H9H9V36H10H10V36H11H11V36H12H12V36H13H13V35H14H14V35H15H15V35H16H16V34H17H17V35H18H18V35H19H19V35H20H20V35H21H21V34H22H22V35H23H23V35H24H24V34H25H25V35H26H26V35H27H27V35H28H28V34H29H29V35H30H30V35H31H31V35H32H32V35H33H33V36H34H34V36H35H35V35H36H36V36H37H37V36H38H38V35H39H39V36H40H40V36H41H41V36H42H42V36H43H43V37H44H44V37H45H45V36H46H46V37H47H47V37H48H48V37H49H49V38H50H50V38H51H51V37H52H52V38H53H53V38H54H54V38H55H55V38H56H56V39H57H57V38H58H58V39H59H59V38H60H60V39H61H61V39H62H62V38H63H63V39H64H64V40H65H65V39H66H66V40H67H67V40H68H68V40H69H69V41H70H70V40H71H71V41H72H72V42H73H73V41H74H74V42H75H75V41H76H76V42H77H77V42H78H78V41H79H79V43H80H80V42H81H81V43H82H82V43H83H83V44H84H84V43H85H85V44H86H86V43H87H87V44H88H88V43H89H89V44H90H90V44H91H91V43H92H92V43H93H93V44H94H94V43H95H95V43H96H96V42H97H97V43H98H98V42H99H99V42H100H100V41H101H101V42H102H102V40H103H103V39H104H104V40H105V54H0Z"/>
</svg>
